<svg width="2629" height="2151" viewBox="0 0 2629 2151" fill="none" xmlns="http://www.w3.org/2000/svg">
<path d="M125.776 75.6957C112.762 64.9722 95.4084 61.8182 77.1876 64.9722C65.908 66.8646 55.4961 71.2801 43.3489 75.0649C78.9228 105.974 113.629 135.621 148.335 165.899C169.159 183.561 193.454 187.346 225.557 175.992C208.204 155.806 193.454 136.882 176.968 119.22C161.35 104.081 143.13 90.2039 125.776 75.6957Z" fill="#7F5BDC"/>
<path d="M1.56201 819.544C10.1197 825.814 16.875 830.324 22.2822 835.622C30.1658 842.296 38.4576 843.47 50.2451 840.965C62.6753 838.48 75.6854 836.871 88.6641 835.686C126.346 831.648 164.64 828.059 202.353 823.6C213.404 822.338 223.875 820.206 236.305 817.721C220.727 801.844 201.854 795.586 176.54 797.989C126.522 803.238 76.5034 808.486 26.4853 813.734C18.6792 814.699 11.3902 817.38 1.56201 819.544Z" fill="#7F5BDC"/>
<path d="M2210.62 181.065C2222.75 180.649 2231.88 180.022 2240.92 180.655C2253.02 180.869 2259.77 177.18 2265.1 169.138C2270.9 160.767 2277.97 152.665 2285.45 144.864C2306.58 121.822 2328.57 98.7498 2349.28 75.4067C2355.39 68.5961 2360.23 61.5144 2366.02 53.1428C2339.37 50.9127 2320.34 56.9088 2305.83 72.1802C2277.68 102.694 2249.53 133.207 2221.38 163.721C2217.14 168.582 2215 174.314 2210.62 181.065Z" fill="#7F5BDC"/>
<path d="M1165.36 183.102C1166.23 189.41 1172.3 200.133 1177.51 200.764C1199.2 204.549 1220.89 213.38 1239.98 203.287C1242.58 152.824 1259.93 106.145 1269.48 56.3124C1263.4 54.42 1258.2 53.1584 1252.99 51.8968C1248.65 51.266 1244.32 50.0044 1239.98 50.6352C1203.54 55.6816 1189.65 48.7429 1181.84 84.6983C1176.64 106.776 1170.56 128.854 1165.36 150.931C1164.49 162.286 1163.62 173.009 1165.36 183.102Z" fill="#7F5BDC"/>
<path d="M2327.01 1408.68C2375.6 1437.07 2425.06 1459.15 2481.46 1469.87C2500.54 1473.66 2523.97 1469.87 2542.19 1456.62C2534.38 1452.84 2530.04 1449.69 2523.97 1447.79C2487.53 1432.65 2451.09 1418.15 2415.51 1402.38C2387.75 1390.39 2361.72 1390.39 2327.01 1408.68Z" fill="#7F5BDC"/>
<path d="M2358.32 277.145C2330.25 294.654 2303.6 313.236 2276.65 331.18C2270.34 335.564 2265.73 341.657 2257.02 350.885C2325.75 351.111 2358.72 316.083 2400.61 292.356C2413 285.067 2426.23 277.574 2424.34 257.454C2418.45 256.763 2409.78 256.047 2401.64 254.489C2385.51 257.722 2370.42 269.218 2358.32 277.145Z" fill="#7F5BDC"/>
<path d="M204.726 1590.55C180.432 1625.24 157.005 1660.57 131.843 1697.78C190.844 1708.51 200.388 1704.72 221.212 1669.4C237.697 1640.38 256.786 1612.63 274.139 1584.24C279.345 1576.04 286.286 1567.84 292.36 1559.01C245.506 1555.22 225.55 1562.16 204.726 1590.55Z" fill="#7F5BDC"/>
<path d="M1626.81 1592.11C1622.47 1592.74 1616.4 1597.16 1616.4 1600.31C1615.53 1612.3 1615.53 1624.28 1615.53 1636.27C1615.53 1638.79 1616.4 1641.31 1616.4 1643.21C1624.21 1670.96 1632.89 1698.09 1655.45 1721.42C1662.39 1728.36 1669.33 1735.93 1683.21 1736.56C1705.77 1737.83 1726.59 1735.93 1745.68 1723.32C1708.37 1678.53 1692.76 1629.33 1687.55 1577.6C1662.39 1573.82 1646.77 1588.33 1626.81 1592.11Z" fill="#7F5BDC"/>
<path d="M662.892 30.946C632.524 10.1299 553.568 53.0237 509.317 51.1313C503.244 50.5006 497.17 50.5006 491.964 49.239C491.964 48.6082 492.832 47.3466 493.699 46.7158C493.699 46.085 495.435 43.5618 495.435 44.1926C487.626 40.4079 480.684 42.9311 476.346 47.9774C476.346 47.9774 476.346 48.6082 475.479 48.6082C475.479 48.6082 475.479 49.239 474.611 49.239C468.537 58.7008 470.273 70.0551 471.14 80.7786C475.479 122.411 479.817 164.043 480.684 205.675C485.023 229.015 472.008 256.769 485.89 278.216C485.89 278.847 485.89 279.478 485.89 280.74C486.758 281.37 487.626 282.001 488.493 282.632C491.964 284.524 495.435 285.786 499.773 286.417C517.126 288.94 534.479 283.893 550.965 282.001C566.582 279.478 581.333 276.955 596.95 274.432C596.083 274.432 596.083 274.432 595.215 274.432C598.686 274.432 602.156 273.801 605.627 273.17C604.759 276.324 604.759 278.847 605.627 280.109C599.553 308.494 589.142 336.88 576.994 364.004C573.524 380.405 539.685 416.36 576.994 420.145C616.907 416.36 657.686 408.159 694.996 396.805C695.863 399.328 695.863 401.852 696.731 404.375C696.731 403.744 696.731 403.113 695.863 403.113C708.878 444.115 714.084 497.101 762.673 524.225C773.952 530.533 775.688 533.056 781.761 516.025C786.967 487.639 786.1 464.3 792.173 445.376C797.379 406.267 802.585 367.158 812.129 328.68C835.556 241.63 853.777 221.445 724.496 269.385C750.526 165.935 846.836 89.6096 630.789 165.935C631.657 160.889 632.524 155.843 633.392 150.796C633.392 151.427 633.392 152.058 632.524 152.058C641.201 116.103 656.819 80.7786 666.363 44.8234C668.966 44.1926 669.834 42.3003 668.966 39.1463L662.892 30.946ZM715.819 391.759C716.687 391.759 716.687 391.128 717.555 391.128C735.776 381.666 755.732 360.85 718.422 362.742C674.172 374.097 630.789 388.605 583.936 393.651C587.406 388.605 619.51 302.817 623.848 268.755C653.348 259.293 649.01 242.261 596.083 254.877C582.2 260.554 516.258 264.97 493.699 273.17C506.714 241.63 495.435 205.045 496.302 172.874C490.229 140.073 494.567 104.749 486.758 71.9475C493.699 74.4706 504.111 75.7322 518.861 74.4706C531.009 75.7322 608.23 71.9475 647.275 58.7008C634.26 90.8712 624.715 139.442 618.642 150.166C618.642 162.781 601.289 185.49 622.113 192.429C662.892 186.752 699.334 168.459 740.981 164.043C726.231 204.414 707.143 244.154 695.863 285.786C668.966 302.817 702.805 348.865 715.819 306.602C723.628 302.817 731.437 299.663 739.246 297.14C745.32 295.248 751.393 292.725 757.467 290.832C771.349 286.417 786.1 282.001 800.85 277.586C798.247 287.047 795.644 295.879 793.041 305.34V304.71C793.041 305.971 792.173 307.233 792.173 307.864C792.173 307.233 792.173 306.602 793.041 306.602C786.1 340.034 743.584 454.207 767.011 498.363" fill="#7F5BDC"/>
<path d="M1231.73 1775.99C1248.27 1767.78 1268.9 1761.21 1272.03 1743.06C1277.65 1711.2 1285.04 1679.91 1289.45 1647.96C1290.92 1637.3 1291.96 1625.27 1277.74 1616.62C1234.21 1623.76 1222.61 1636.36 1223.21 1667.78C1224.3 1695.66 1219.84 1723.57 1217.82 1751.66C1217.63 1757.48 1215.01 1763.11 1215.49 1768.53C1216.95 1775.81 1224.46 1779.5 1231.73 1775.99Z" fill="#7F5BDC"/>
<path d="M1409.27 157.735C1427.63 151.934 1449.6 148.307 1457.36 130.905C1471.12 100.376 1486.48 70.6569 1499.07 39.8739C1503.27 29.613 1507.4 17.9424 1495.67 7.49614C1451.07 8.55801 1436.41 19.3502 1428.88 50.2949C1422.74 77.8189 1411.14 104.627 1401.89 131.943C1400.2 137.629 1396.16 142.805 1395.24 148.189C1394.8 155.539 1401.22 160.184 1409.27 157.735Z" fill="#7F5BDC"/>
<path d="M2537.25 689.228C2539.09 687.582 2540.9 684.781 2539.53 682.044C2530.08 674.84 2467.22 672.803 2450.47 674.506C2467.61 639.371 2522.3 626.118 2547.22 595.908C2567.28 580.545 2484.09 577.278 2470.99 574.529C2485.53 555.581 2505.56 539.065 2526.26 523.92C2525.58 522.55 2525.24 521.864 2524.55 520.494C2525.53 521.398 2525.58 522.55 2526.26 523.92C2525.53 521.398 2523.57 519.591 2521.6 517.784C2497.94 503.478 2464.28 502.27 2435.82 495.431C2397.88 525.196 2366.11 558.762 2339.81 594.761C2330.27 612.001 2396.4 607.753 2410.82 612.09C2381.02 638.935 2354.48 668.021 2334.7 699.977C2332.3 703.711 2329.89 707.446 2327.49 711.18C2346.88 712.656 2365.89 712.296 2385.33 714.927C2351.29 773.893 2330.06 836.077 2308.82 898.26C2377.52 824.344 2447.8 750.396 2537.25 689.228Z" fill="#7F5BDC"/>
<path fill-rule="evenodd" clip-rule="evenodd" d="M889.973 1621.81L577.94 1582.15L427.145 2107.32L853.168 2133.47L889.973 1621.81ZM834.85 1654.14L824.627 1803.29C797.585 1781.16 756.217 1764.08 708.079 1759.3C662.858 1754.8 618.56 1761.2 585.994 1776.33L632.885 1629.75L834.85 1654.14ZM820.289 1857.96L818.818 1881.58L802.772 1879.99C799.518 1889.39 795.004 1897.58 785.916 1906.4L736.319 1901.47C752.901 1892.31 761.79 1884.55 763.586 1875.01C764.384 1870.77 763.723 1866.38 759.945 1862.77C756.167 1859.15 750.731 1856.45 744.896 1855.87C739.061 1855.28 734.486 1855.91 730.97 1858.8C726.195 1860.49 720.622 1866.42 713.191 1874.32C705.761 1882.23 700.387 1887.1 695.013 1891.96C689.839 1895.77 681.747 1899.28 672.397 1901.6C663.046 1903.91 654.094 1904.1 643.883 1903.08C627.837 1901.48 613.848 1896.85 602.116 1888.12C589.125 1878.2 582.367 1866.71 579.125 1852.35L561.621 1850.61L568.927 1827.57L583.514 1829.02C585.309 1819.47 591.68 1809.31 602.826 1797.45L653.882 1802.53C635.642 1812.59 624.695 1823.39 622.7 1834C621.503 1840.36 623.423 1845.95 627.201 1849.57C632.238 1854.39 639.132 1857.23 646.426 1857.96C653.72 1858.68 659.954 1857.15 664.929 1854.4C669.903 1851.65 675.476 1845.72 682.707 1838.88C691.996 1829 700.885 1821.24 712.094 1816.96C723.302 1812.67 735.571 1810.64 751.616 1812.24C766.203 1813.69 778.734 1818.18 787.748 1825.56C796.762 1832.94 803.719 1843.35 807.36 1855.59L820.488 1856.9L820.289 1857.96ZM815.876 1928.82L804.593 2075.71L495.069 2062.22L545.413 1905.17C571.459 1932.61 616.803 1952.24 672.235 1957.76C727.666 1963.27 780.455 1951.23 815.876 1928.82Z" fill="#7F5BDC"/>
<path fill-rule="evenodd" clip-rule="evenodd" d="M1899.01 444.051L1919.53 448.046C1919.53 448.046 1947.96 454.385 1958.46 434.856L2120.02 118.763C2120.02 118.763 2134.21 95.1613 2092.09 90.1528C2085.67 89.6999 2074.12 88.2484 2060.51 86.397L1899.01 444.051ZM1778.96 57.1186C1778.96 57.1186 1747.92 51.8717 1738.78 79.6539C1724.08 125.528 1651.73 369.513 1651.73 369.513C1651.73 369.513 1640.42 391.278 1680.41 399.068C1701.93 403.263 1772.41 417.791 1830.59 429.922L1975.73 77.8719C1885.83 68.3476 1778.96 57.1186 1778.96 57.1186ZM1923.58 106.064L1848.53 288.799L1819.82 283.205L1890.42 103.599L1923.58 106.064ZM1872.64 104.13L1820.87 226.681L1795.23 221.687L1842.82 101.52L1872.64 104.13Z" fill="#7F5BDC"/>
<path fill-rule="evenodd" clip-rule="evenodd" d="M2068.3 1678.17L2070.1 1702.92L2141.46 1713.7L2150.81 1680.97L2068.3 1678.17ZM2072.52 1716.18L2075.7 1754.67L2128.37 1762.62L2138.78 1726.18L2072.52 1716.18ZM2077.09 1768.41L2080.31 1803.68L2115.14 1808.94L2124.67 1775.59L2077.09 1768.41ZM2132.98 1811.63L2180.55 1818.81L2196.02 1786.36L2142.5 1778.28L2132.98 1811.63ZM2202.28 1773.77L2218.63 1738.24L2156.62 1728.87L2146.21 1765.31L2202.28 1773.77ZM2224.89 1725.65L2243.68 1684.68L2170.03 1681.93L2160.14 1716.52L2224.72 1726.27L2224.89 1725.65ZM2198.39 1821.51L2230.68 1826.38L2256.34 1795.47L2213.02 1788.93L2198.39 1821.51ZM2266.84 1783.53L2295.09 1749.78L2236.47 1740.93L2220.12 1776.47L2266.84 1783.53ZM2305.59 1737.83L2347.28 1688.07L2263.07 1685.03L2242.73 1728.34L2305.59 1737.83ZM2018.79 1879.43C2015.26 1891.79 2026.21 1903.11 2042.35 1905.54C2058.49 1907.97 2074.91 1900.15 2078.26 1888.41C2081.61 1876.67 2070.85 1864.75 2054.7 1862.31C2037.88 1859.13 2022.32 1867.08 2018.79 1879.43ZM2147.92 1898.93C2144.4 1911.28 2155.34 1922.6 2171.48 1925.04C2187.62 1927.47 2204.04 1919.64 2207.39 1907.91C2210.74 1896.17 2199.97 1884.24 2183.83 1881.8C2167.87 1878.75 2151.45 1886.58 2147.92 1898.93ZM2035.81 1627.52L1965.29 1616.88L1945 1638.3L2007.86 1647.79L2030.26 1839.29L2229.9 1869.43L2239.12 1849.56L2049.67 1820.96L2035.81 1627.52Z" fill="#7F5BDC"/>
<g clip-path="url(#clip0_202_57)">
<path d="M435.315 1317.38L771.876 801.846L888.251 877.819C909.587 891.748 915.393 920.99 901.153 942.802L875.263 982.459L694.038 1260.06L616.37 1379.03C602.13 1400.84 573.024 1407.29 551.688 1393.36L435.315 1317.38Z" fill="#AAB1BA"/>
<path d="M1892.06 721.535C1952.86 704.67 2022.06 713.082 2078.31 749.803C2184.98 819.444 2214.01 965.652 2142.82 1074.71C2065.15 1193.68 1819.33 1315.99 1528.31 1295.67C1392.62 1037.42 1405.7 763.162 1483.36 644.192C1554.56 535.136 1700.09 502.889 1806.77 572.531C1833.92 590.258 1857.19 613.933 1873.99 639.043C1873.99 639.043 1895.96 681.662 1892.71 716.304L1892.06 721.535Z" fill="#FF7474"/>
<path d="M1382.64 1607.79C1389.75 1609.61 1396.87 1611.42 1405.27 1611.26L1700.81 1645.83C1738.32 1647.7 1768.7 1681.67 1766.1 1719.56C1763.49 1757.45 1729.2 1788.79 1691.69 1786.93L1321.11 1782.55C1321.11 1782.55 1237.03 1784.22 1101.26 1695.58C984.888 1619.61 875.05 1406.51 875.05 1406.51C875.05 1406.51 849.202 1361.35 771.62 1310.71L694.035 1260.06L875.261 982.458L1108.01 1134.4C1166.2 1172.39 1185.51 1354.67 1243.7 1392.66L1360.07 1468.63C1398.86 1493.96 1405.31 1526.45 1405.31 1526.45C1405.31 1526.45 1411.77 1558.94 1385.88 1598.59L1382.64 1607.79Z" fill="#FFFD67"/>
<path d="M545.217 1403.27L428.842 1327.3C423.023 1323.5 421.733 1317 425.616 1311.05C429.5 1305.1 435.969 1303.67 441.788 1307.47L558.162 1383.44C573.68 1393.57 596.317 1388.56 606.673 1372.69L891.455 936.47C901.811 920.607 897.295 897.865 881.778 887.734L765.403 811.761C759.585 807.962 758.294 801.463 762.178 795.514C766.061 789.566 772.53 788.132 778.349 791.931L894.724 867.904C921.878 885.632 928.973 921.371 910.851 949.129L626.069 1385.35C607.945 1413.12 572.369 1421 545.217 1403.27ZM1094.79 1705.5C976.479 1628.26 869.223 1419.67 865.993 1411.9C865.993 1411.9 838.851 1368.73 765.149 1320.62C759.33 1316.82 758.04 1310.32 761.923 1304.37C765.806 1298.42 772.276 1296.99 778.095 1300.79C857.618 1352.7 883.464 1397.85 884.109 1401.11C884.754 1404.35 995.243 1612.22 1107.74 1685.67C1237.69 1770.5 1320.47 1770.82 1320.47 1770.82L1691.05 1775.2C1723.38 1776.51 1750.56 1751.83 1752.52 1719.18C1754.47 1686.52 1730.56 1659.6 1698.22 1658.28L1402.68 1623.71C1347.71 1618.93 1308.92 1593.6 1229.4 1541.69C1151.81 1491.04 1052.26 1397.77 1046.44 1393.97C1040.62 1390.17 1040.63 1381.69 1046.45 1377.01C1050.33 1371.06 1058.74 1370.89 1063.27 1376.68C1065.2 1377.94 1166.7 1472.48 1242.34 1521.86C1317.98 1571.24 1356.78 1596.57 1405.28 1602.78L1700.82 1637.36C1743.5 1639.77 1779.7 1677.54 1775.15 1722.64C1772.54 1769.02 1733.72 1803.06 1687.8 1801.36L1317.23 1796.98C1316.58 1793.73 1232.5 1795.4 1094.79 1705.5ZM542.054 1259.81C530.417 1252.21 527.837 1239.22 535.604 1227.32C543.37 1215.42 556.305 1212.56 567.943 1220.16C579.58 1227.75 582.16 1240.75 574.394 1252.65C566.627 1264.54 553.692 1267.41 542.054 1259.81ZM1398.84 1536.36C1396.9 1535.1 1393.02 1532.56 1392.38 1529.32C1392.38 1529.32 1386.57 1500.07 1353.6 1478.55L1237.22 1402.57C1204.25 1381.05 1184.88 1325.98 1164.86 1267.67C1146.13 1215.85 1126.75 1160.78 1101.54 1144.32L946.373 1043.02C940.554 1039.22 939.264 1032.72 943.147 1026.78C947.031 1020.83 953.5 1019.39 959.319 1023.19L1114.49 1124.49C1147.46 1146.02 1166.83 1201.08 1186.85 1259.4C1205.58 1311.22 1224.96 1366.28 1250.17 1382.74L1366.54 1458.72C1409.21 1486.57 1416.31 1522.32 1418.25 1523.58C1419.54 1530.08 1415.66 1536.03 1409.19 1537.46C1404.66 1540.16 1400.78 1537.63 1398.84 1536.36ZM1521.84 1305.59C1519.9 1304.32 1517.96 1303.06 1519.25 1301.07C1386.15 1047.33 1390.82 764.761 1473.67 637.86C1548.74 522.856 1700.75 489.175 1813.24 562.616C1842.33 581.609 1865.6 605.285 1883.05 633.643C1887.58 639.423 1885.63 646.638 1879.81 651.32C1873.99 656.003 1866.87 654.187 1862.35 648.406C1845.55 623.296 1824.22 600.887 1799 584.425C1698.14 518.582 1559.08 549.395 1491.77 652.504C1412.8 773.456 1408.79 1042.31 1534.78 1285.76C1808.34 1303.16 2054.16 1189.33 2131.83 1070.36C2199.14 967.251 2171.4 827.54 2070.54 761.696C1998.78 714.846 1904.35 715.415 1832.54 761.855C1826.72 766.538 1819.61 764.721 1816.38 756.959C1811.85 751.178 1813.8 743.964 1821.56 740.547C1902.43 688.71 2007.2 689.239 2084.78 739.888C2197.28 813.328 2227.6 966.035 2152.52 1081.04C2069.67 1207.94 1812.86 1325.9 1527.01 1306.14C1525.72 1308.12 1523.78 1306.85 1521.84 1305.59ZM2078.84 990.518C2074.96 987.985 2072.37 983.471 2073.02 978.237C2082.09 938.915 2074.35 899.927 2051.73 871.018C2047.21 865.238 2049.15 858.024 2053.68 855.323C2059.5 850.64 2066.61 852.457 2069.2 856.972C2096.99 894.908 2106.02 940.397 2095 986.933C2093.06 994.147 2088.53 996.848 2081.42 995.031C2080.77 991.783 2078.84 990.518 2078.84 990.518Z" fill="#51565F"/>
</g>
<defs>
<clipPath id="clip0_202_57">
<rect width="1366.62" height="1397.1" fill="white" transform="translate(1182.73 151) rotate(33.1379)"/>
</clipPath>
</defs>
</svg>
